<svg width="12" height="12" viewBox="0 0 12 12" fill="none" xmlns="http://www.w3.org/2000/svg">
<path d="M11.9975 0.450656C11.9968 0.44325 11.9954 0.436078 11.9943 0.428789C11.9931 0.419953 11.992 0.411094 11.9903 0.402305C11.9886 0.393914 11.9863 0.385781 11.9843 0.377555C11.9824 0.369984 11.9807 0.362367 11.9784 0.354867C11.976 0.346781 11.9729 0.338977 11.9701 0.331078C11.9674 0.323602 11.965 0.316055 11.9619 0.308672C11.9589 0.301289 11.9552 0.294234 11.9519 0.287039C11.9483 0.279445 11.9449 0.271781 11.9409 0.264328C11.9372 0.257437 11.933 0.250875 11.929 0.244172C11.9247 0.236883 11.9205 0.2295 11.9158 0.222375C11.9108 0.214969 11.9053 0.208008 11.9 0.200883C11.8955 0.194953 11.8914 0.188859 11.8867 0.18307C11.8763 0.170437 11.8654 0.158273 11.8538 0.146719C11.8537 0.146625 11.8536 0.146531 11.8536 0.146437C11.8535 0.146344 11.8534 0.146297 11.8533 0.146203C11.8417 0.134648 11.8296 0.123703 11.8169 0.11332C11.8111 0.108562 11.805 0.104437 11.7991 0.0999844C11.792 0.0946641 11.785 0.0891562 11.7776 0.0842109C11.7705 0.0794531 11.7631 0.0753281 11.7558 0.0709688C11.7491 0.0669609 11.7426 0.0627656 11.7357 0.0590625C11.7282 0.0550781 11.7206 0.0517031 11.713 0.0481172C11.7058 0.0447187 11.6987 0.0411328 11.6913 0.0380625C11.6839 0.0350156 11.6764 0.0325313 11.6689 0.0298594C11.661 0.0270234 11.6532 0.024 11.6451 0.0215625C11.6376 0.0192891 11.63 0.017625 11.6224 0.0157266C11.6142 0.0136406 11.6061 0.0113438 11.5977 0.00967969C11.5889 0.00794531 11.5801 0.00689062 11.5712 0.005625C11.5639 0.00459375 11.5568 0.0031875 11.5494 0.00246094C11.5329 0.000867187 11.5165 0 11.5 0H7.99998C7.72384 0 7.49999 0.223852 7.49999 0.499992C7.49999 0.776133 7.72384 0.999984 7.99998 0.999984H10.2929L6.64644 4.64644C6.45119 4.8417 6.45119 5.15829 6.64644 5.35355C6.8417 5.5488 7.1583 5.5488 7.35355 5.35355L11 1.70712V4.00001C11 4.27615 11.2238 4.5 11.5 4.5C11.7761 4.5 12 4.27615 12 4.00001V0.500039C12 0.483539 11.9991 0.467063 11.9975 0.450656Z" fill="#C5CBCE"/>
<path d="M4.64644 6.64647L1.00001 10.2929V8.00001C1.00001 7.72387 0.776156 7.50001 0.500016 7.50001C0.223852 7.50001 0 7.72387 0 8.00001V11.5C0 11.5165 0.000867188 11.5329 0.00248437 11.5493C0.00321094 11.5567 0.00459375 11.5639 0.00564844 11.5712C0.00691406 11.58 0.00794531 11.5889 0.00970312 11.5977C0.0113672 11.6061 0.0136641 11.6142 0.01575 11.6224C0.0176484 11.63 0.0193125 11.6376 0.0215859 11.6451C0.0240234 11.6532 0.0270469 11.661 0.0298828 11.6689C0.0325781 11.6764 0.0350391 11.6839 0.0380859 11.6913C0.0411328 11.6987 0.0447422 11.7057 0.0481406 11.7129C0.0517266 11.7205 0.0551016 11.7282 0.0590859 11.7356C0.0627891 11.7425 0.0669844 11.7491 0.0709922 11.7558C0.0753516 11.7631 0.0794766 11.7705 0.0842344 11.7776C0.0891797 11.785 0.0946875 11.7919 0.100008 11.7991C0.104461 11.805 0.108586 11.8111 0.113344 11.8169C0.123727 11.8296 0.134672 11.8417 0.146227 11.8533C0.14632 11.8534 0.146367 11.8535 0.146461 11.8535C0.146555 11.8536 0.146648 11.8537 0.146742 11.8538C0.158297 11.8653 0.170461 11.8763 0.183094 11.8866C0.188883 11.8914 0.194977 11.8955 0.200906 11.9C0.208031 11.9053 0.214992 11.9108 0.222398 11.9158C0.2295 11.9205 0.236883 11.9246 0.244195 11.929C0.250898 11.933 0.257437 11.9372 0.264352 11.9409C0.271805 11.9449 0.279469 11.9483 0.287062 11.9518C0.294258 11.9552 0.301336 11.9588 0.308695 11.9619C0.316078 11.9649 0.323602 11.9674 0.331102 11.9701C0.339 11.9729 0.346805 11.9759 0.354891 11.9784C0.362391 11.9807 0.370008 11.9823 0.377578 11.9842C0.385805 11.9863 0.393937 11.9886 0.402328 11.9903C0.411117 11.992 0.419977 11.9931 0.428813 11.9943C0.436102 11.9953 0.443297 11.9968 0.45068 11.9975C0.467086 11.9991 0.483539 12 0.499992 12H0.500016H4.00001C4.27615 12 4.5 11.7761 4.5 11.5C4.5 11.2238 4.27615 11 4.00001 11H1.70712L5.35357 7.35353C5.54883 7.15827 5.54883 6.84168 5.35357 6.64642C5.15831 6.45116 4.84172 6.45121 4.64644 6.64647Z" fill="#C5CBCE"/>
</svg>
