<svg width="12" height="12" viewBox="0 0 12 12" fill="none" xmlns="http://www.w3.org/2000/svg">
<path d="M11.8536 0.146443C11.6583 -0.0488145 11.3417 -0.0488145 11.1465 0.146443L7.50001 3.7929V1.50001C7.50001 1.22387 7.27616 1.00001 7.00002 1.00001C6.72388 1.00001 6.50003 1.22387 6.50003 1.50001V5C6.50003 5.00016 6.50005 5.00035 6.50005 5.00051C6.50008 5.0168 6.50092 5.03309 6.50251 5.04933C6.50324 5.05679 6.50465 5.06403 6.5057 5.07137C6.50697 5.08015 6.508 5.08894 6.50971 5.09766C6.51137 5.10608 6.51369 5.11426 6.51578 5.12253C6.51768 5.13008 6.51932 5.13765 6.52159 5.14512C6.52405 5.15323 6.52708 5.16106 6.52994 5.16898C6.53261 5.17644 6.53507 5.18396 6.53812 5.19132C6.54119 5.19872 6.54477 5.2058 6.54819 5.21302C6.55176 5.22059 6.55513 5.22823 6.55909 5.23566C6.5628 5.24258 6.56701 5.24914 6.57102 5.25584C6.57538 5.26313 6.57948 5.27051 6.58424 5.27762C6.58919 5.28502 6.59472 5.29198 6.60004 5.29911C6.60449 5.30504 6.60859 5.31113 6.61335 5.3169C6.63426 5.34237 6.65762 5.36576 6.68312 5.38667C6.68889 5.3914 6.69498 5.39553 6.70091 5.39998C6.70804 5.40533 6.715 5.41083 6.7224 5.41578C6.72951 5.42054 6.73689 5.42466 6.74418 5.429C6.75088 5.43301 6.75744 5.43722 6.76436 5.44093C6.77179 5.44489 6.77943 5.44826 6.787 5.45183C6.79422 5.45522 6.80132 5.45883 6.8087 5.4619C6.81606 5.46495 6.82358 5.46741 6.83104 5.47008C6.83896 5.47294 6.84679 5.47597 6.8549 5.47843C6.86235 5.48068 6.86994 5.48234 6.87749 5.48424C6.88576 5.48633 6.89392 5.48865 6.90236 5.49031C6.91108 5.49204 6.91989 5.49308 6.92866 5.49432C6.93601 5.49537 6.94323 5.49676 6.95069 5.49751C6.96693 5.4991 6.98322 5.49997 6.99951 5.49997C6.99967 5.49997 6.99986 5.49999 7.00002 5.49999H10.5C10.7762 5.49999 11 5.27614 11 5C11 4.72386 10.7762 4.50001 10.5 4.50001H8.20712L11.8536 0.853553C12.0488 0.658295 12.0488 0.341725 11.8536 0.146443Z" fill="#C5CBCE"/>
<path d="M5.49751 6.95066C5.49678 6.9432 5.49537 6.93596 5.49432 6.92862C5.49305 6.91984 5.49202 6.91105 5.49031 6.90233C5.48865 6.89391 5.48633 6.88573 5.48424 6.87746C5.48234 6.86991 5.4807 6.86234 5.47843 6.85487C5.47597 6.84676 5.47294 6.83893 5.47008 6.83101C5.46741 6.82355 5.46495 6.81603 5.4619 6.80867C5.45883 6.80127 5.45525 6.79419 5.45183 6.78697C5.44826 6.7794 5.44489 6.77176 5.44093 6.76433C5.43722 6.75741 5.43301 6.75085 5.429 6.74415C5.42464 6.73686 5.42054 6.72948 5.41578 6.72237C5.41083 6.71497 5.4053 6.70801 5.39998 6.70088C5.39553 6.69495 5.39143 6.68886 5.38667 6.68309C5.36576 6.65762 5.3424 6.63423 5.3169 6.61332C5.31113 6.60859 5.30504 6.60446 5.29911 6.60001C5.29198 6.59466 5.28502 6.58916 5.27762 6.58421C5.27051 6.57945 5.26313 6.57533 5.25584 6.57099C5.24914 6.56698 5.24258 6.56277 5.23566 6.55906C5.22823 6.5551 5.22059 6.55173 5.21302 6.54816C5.2058 6.54477 5.1987 6.54116 5.19132 6.53809C5.18396 6.53504 5.17644 6.53258 5.16898 6.52991C5.16106 6.52705 5.15323 6.52402 5.14512 6.52156C5.13767 6.51931 5.13008 6.51765 5.12253 6.51575C5.11426 6.51366 5.1061 6.51134 5.09766 6.50968C5.08894 6.50795 5.08013 6.50691 5.07137 6.50567C5.06401 6.50462 5.05679 6.50323 5.04933 6.50248C5.03293 6.50087 5.01647 6.5 5 6.5H1.50001C1.22387 6.5 1.00001 6.72385 1.00001 6.99999C1.00001 7.27613 1.22387 7.49998 1.50001 7.49998H3.7929L0.146443 11.1464C-0.0488145 11.3417 -0.0488145 11.6583 0.146443 11.8535C0.341701 12.0488 0.658295 12.0488 0.853553 11.8535L4.50001 8.20709V10.5C4.50001 10.7761 4.72386 11 5 11C5.27614 11 5.49999 10.7761 5.49999 10.5V6.99999C5.50001 6.98352 5.49912 6.96706 5.49751 6.95066Z" fill="#C5CBCE"/>
</svg>
